<svg xmlns="http://www.w3.org/2000/svg"  viewBox="0 0 48 48" width="48px" height="48px" baseProfile="basic"><path fill="#90caf9" d="M40.121,44H15.879C13.737,44,12,42.263,12,40.121V15.879C12,13.737,13.737,12,15.879,12h24.242	C42.263,12,44,13.737,44,15.879v24.242C44,42.263,42.263,44,40.121,44z"/><path fill="#18193f" d="M36.5,42h-25C8.467,42,6,39.533,6,36.5V20.83c0-0.829,0.671-1.5,1.5-1.5S9,20.001,9,20.83V36.5	c0,1.378,1.122,2.5,2.5,2.5h25c1.378,0,2.5-1.122,2.5-2.5v-4.904c0-0.829,0.671-1.5,1.5-1.5s1.5,0.671,1.5,1.5V36.5	C42,39.533,39.533,42,36.5,42z"/><path fill="#18193f" d="M40.5,27.479c-0.829,0-1.5-0.671-1.5-1.5V11.5c0-1.378-1.122-2.5-2.5-2.5h-25	C10.122,9,9,10.122,9,11.5v2.564c0,0.829-0.671,1.5-1.5,1.5S6,14.893,6,14.064V11.5C6,8.467,8.467,6,11.5,6h25	c3.033,0,5.5,2.467,5.5,5.5v14.479C42,26.808,41.329,27.479,40.5,27.479z"/><circle cx="25" cy="19" r="3" fill="#18193f"/><path fill="#18193f" d="M15,24c0-4.071,4.214-12,10.857-12c4.714,0,5.571,3.429,5.571,3.429S29.454,13.832,26,14	C17.882,14.394,15,24,15,24z"/><path fill="#18193f" d="M23,25c1.447,0,2.755-0.132,4-0.75V34c0,1.105-0.895,2-2,2h0c-1.105,0-2-0.895-2-2V25z"/></svg>