<svg id="wave" style="transform:rotate(0deg); transition: 0.3s" viewBox="0 0 1440 490" version="1.1" xmlns="http://www.w3.org/2000/svg"><defs><linearGradient id="sw-gradient-0" x1="0" x2="0" y1="1" y2="0"><stop stop-color="rgba(54, 53, 85, 1)" offset="0%"></stop><stop stop-color="rgba(54, 53, 85, 1)" offset="100%"></stop></linearGradient></defs><path style="transform:translate(0, 0px); opacity:1" fill="url(#sw-gradient-0)" d="M0,245L60,269.5C120,294,240,343,360,359.3C480,376,600,359,720,318.5C840,278,960,212,1080,187.8C1200,163,1320,180,1440,204.2C1560,229,1680,261,1800,269.5C1920,278,2040,261,2160,269.5C2280,278,2400,310,2520,277.7C2640,245,2760,147,2880,122.5C3000,98,3120,147,3240,155.2C3360,163,3480,131,3600,138.8C3720,147,3840,196,3960,228.7C4080,261,4200,278,4320,253.2C4440,229,4560,163,4680,187.8C4800,212,4920,327,5040,359.3C5160,392,5280,343,5400,277.7C5520,212,5640,131,5760,114.3C5880,98,6000,147,6120,187.8C6240,229,6360,261,6480,277.7C6600,294,6720,294,6840,318.5C6960,343,7080,392,7200,400.2C7320,408,7440,376,7560,359.3C7680,343,7800,343,7920,285.8C8040,229,8160,114,8280,81.7C8400,49,8520,98,8580,122.5L8640,147L8640,490L8580,490C8520,490,8400,490,8280,490C8160,490,8040,490,7920,490C7800,490,7680,490,7560,490C7440,490,7320,490,7200,490C7080,490,6960,490,6840,490C6720,490,6600,490,6480,490C6360,490,6240,490,6120,490C6000,490,5880,490,5760,490C5640,490,5520,490,5400,490C5280,490,5160,490,5040,490C4920,490,4800,490,4680,490C4560,490,4440,490,4320,490C4200,490,4080,490,3960,490C3840,490,3720,490,3600,490C3480,490,3360,490,3240,490C3120,490,3000,490,2880,490C2760,490,2640,490,2520,490C2400,490,2280,490,2160,490C2040,490,1920,490,1800,490C1680,490,1560,490,1440,490C1320,490,1200,490,1080,490C960,490,840,490,720,490C600,490,480,490,360,490C240,490,120,490,60,490L0,490Z"></path></svg>