<?xml version="1.0" standalone="no"?>
<svg xmlns:xlink="http://www.w3.org/1999/xlink" id="wave" style="transform:rotate(0deg); transition: 0.3s" viewBox="0 0 1440 490" version="1.1" xmlns="http://www.w3.org/2000/svg"><defs><linearGradient id="sw-gradient-0" x1="0" x2="0" y1="1" y2="0"><stop stop-color="rgba(255, 255, 255, 1)" offset="0%"/><stop stop-color="rgba(255, 255, 255, 1)" offset="100%"/></linearGradient></defs><path style="transform:translate(0, 0px); opacity:1" fill="url(#sw-gradient-0)" d="M0,49L60,73.5C120,98,240,147,360,163.3C480,180,600,163,720,155.2C840,147,960,147,1080,187.8C1200,229,1320,310,1440,351.2C1560,392,1680,392,1800,359.3C1920,327,2040,261,2160,220.5C2280,180,2400,163,2520,155.2C2640,147,2760,147,2880,171.5C3000,196,3120,245,3240,261.3C3360,278,3480,261,3600,277.7C3720,294,3840,343,3960,326.7C4080,310,4200,229,4320,228.7C4440,229,4560,310,4680,310.3C4800,310,4920,229,5040,171.5C5160,114,5280,82,5400,65.3C5520,49,5640,49,5760,40.8C5880,33,6000,16,6120,65.3C6240,114,6360,229,6480,245C6600,261,6720,180,6840,171.5C6960,163,7080,229,7200,277.7C7320,327,7440,359,7560,375.7C7680,392,7800,392,7920,343C8040,294,8160,196,8280,138.8C8400,82,8520,65,8580,57.2L8640,49L8640,490L8580,490C8520,490,8400,490,8280,490C8160,490,8040,490,7920,490C7800,490,7680,490,7560,490C7440,490,7320,490,7200,490C7080,490,6960,490,6840,490C6720,490,6600,490,6480,490C6360,490,6240,490,6120,490C6000,490,5880,490,5760,490C5640,490,5520,490,5400,490C5280,490,5160,490,5040,490C4920,490,4800,490,4680,490C4560,490,4440,490,4320,490C4200,490,4080,490,3960,490C3840,490,3720,490,3600,490C3480,490,3360,490,3240,490C3120,490,3000,490,2880,490C2760,490,2640,490,2520,490C2400,490,2280,490,2160,490C2040,490,1920,490,1800,490C1680,490,1560,490,1440,490C1320,490,1200,490,1080,490C960,490,840,490,720,490C600,490,480,490,360,490C240,490,120,490,60,490L0,490Z"/></svg>