<?xml version="1.0" standalone="no"?>
<svg xmlns:xlink="http://www.w3.org/1999/xlink" id="wave" style="transform:rotate(0deg); transition: 0.3s" viewBox="0 0 1440 490" version="1.1" xmlns="http://www.w3.org/2000/svg"><defs><linearGradient id="sw-gradient-0" x1="0" x2="0" y1="1" y2="0"><stop stop-color="rgba(55, 54, 86, 1)" offset="0%"/><stop stop-color="rgba(55, 54, 86, 1)" offset="100%"/></linearGradient></defs><path style="transform:translate(0, 0px); opacity:1" fill="url(#sw-gradient-0)" d="M0,294L80,318.5C160,343,320,392,480,367.5C640,343,800,245,960,179.7C1120,114,1280,82,1440,114.3C1600,147,1760,245,1920,302.2C2080,359,2240,376,2400,375.7C2560,376,2720,359,2880,359.3C3040,359,3200,376,3360,334.8C3520,294,3680,196,3840,187.8C4000,180,4160,261,4320,245C4480,229,4640,114,4800,89.8C4960,65,5120,131,5280,138.8C5440,147,5600,98,5760,65.3C5920,33,6080,16,6240,57.2C6400,98,6560,196,6720,196C6880,196,7040,98,7200,98C7360,98,7520,196,7680,236.8C7840,278,8000,261,8160,212.3C8320,163,8480,82,8640,73.5C8800,65,8960,131,9120,138.8C9280,147,9440,98,9600,122.5C9760,147,9920,245,10080,294C10240,343,10400,343,10560,343C10720,343,10880,343,11040,334.8C11200,327,11360,310,11440,302.2L11520,294L11520,490L11440,490C11360,490,11200,490,11040,490C10880,490,10720,490,10560,490C10400,490,10240,490,10080,490C9920,490,9760,490,9600,490C9440,490,9280,490,9120,490C8960,490,8800,490,8640,490C8480,490,8320,490,8160,490C8000,490,7840,490,7680,490C7520,490,7360,490,7200,490C7040,490,6880,490,6720,490C6560,490,6400,490,6240,490C6080,490,5920,490,5760,490C5600,490,5440,490,5280,490C5120,490,4960,490,4800,490C4640,490,4480,490,4320,490C4160,490,4000,490,3840,490C3680,490,3520,490,3360,490C3200,490,3040,490,2880,490C2720,490,2560,490,2400,490C2240,490,2080,490,1920,490C1760,490,1600,490,1440,490C1280,490,1120,490,960,490C800,490,640,490,480,490C320,490,160,490,80,490L0,490Z"/></svg>